<svg width="50" height="50" viewBox="0 0 50 50" fill="none" xmlns="http://www.w3.org/2000/svg">
<rect width="41.875" height="41.9355" fill="black"/>
<rect x="8.425" y="10.2597" width="40.025" height="38.1903" stroke="black" stroke-width="3.1"/>
<path d="M5.78884 24.6774C5.47128 24.6774 5.3125 24.5565 5.3125 24.3145V21.1065C5.3125 20.9226 5.37601 20.7774 5.50304 20.671L8.32295 18.5226C8.47538 18.4161 8.5516 18.2613 8.5516 18.0581V3.26613C8.5516 3.0242 8.71038 2.90323 9.02793 2.90323H15.4299C15.7475 2.90323 15.9063 3.0242 15.9063 3.26613V20.9903C15.9063 21.0774 15.8935 21.1597 15.8681 21.2371C15.8427 21.3048 15.7792 21.3774 15.6776 21.4548L11.7335 24.4597C11.543 24.6048 11.3525 24.6774 11.1619 24.6774H5.78884Z" fill="white"/>
</svg>
