<svg width="500" height="190" viewBox="0 0 500 190" fill="none" xmlns="http://www.w3.org/2000/svg">
<rect width="199.405" height="159.355" fill="black"/>
<rect x="36.7379" y="37.0968" width="197.357" height="148.903" stroke="black" stroke-width="8"/>
<path d="M27.1162 91.7723C25.9037 91.7723 25.2974 91.3237 25.2974 90.4266V78.5309C25.2974 77.8491 25.5399 77.3108 26.0249 76.9161L36.7922 68.9497C37.3742 68.555 37.6652 67.9809 37.6652 67.2273V12.3779C37.6652 11.4808 38.2715 11.0323 39.484 11.0323H63.9286C65.1412 11.0323 65.7474 11.4808 65.7474 12.3779V78.1003C65.7474 78.4232 65.6989 78.7283 65.6019 79.0153C65.5049 79.2665 65.2624 79.5357 64.8744 79.8227L49.8148 90.9649C49.0873 91.5031 48.3597 91.7723 47.6322 91.7723H27.1162Z" fill="white"/>
<path d="M441.997 180.481C440.888 180.481 440.334 180.006 440.334 179.056V105.925C440.334 104.975 440.888 104.5 441.997 104.5H482.905C483.925 104.5 484.812 104.804 485.566 105.412L498.869 116.812C499.623 117.458 500 118.218 500 119.092V146.737C500 147.649 499.623 148.409 498.869 149.017L485.566 160.417C484.812 161.063 483.925 161.386 482.905 161.386H467.805V179.056C467.805 180.006 467.251 180.481 466.142 180.481H441.997ZM469.601 138.301C471.464 138.301 472.949 137.807 474.058 136.819C475.211 135.793 475.788 134.482 475.788 132.886C475.788 131.328 475.211 130.055 474.058 129.067C472.949 128.079 471.464 127.585 469.601 127.585C467.739 127.585 466.231 128.079 465.078 129.067C463.97 130.055 463.415 131.328 463.415 132.886C463.415 134.482 463.97 135.793 465.078 136.819C466.231 137.807 467.739 138.301 469.601 138.301Z" fill="black"/>
<path d="M375.219 180.481C374.111 180.481 373.556 180.006 373.556 179.056V105.925C373.556 104.975 374.111 104.5 375.219 104.5H417.258C418.278 104.5 419.165 104.804 419.919 105.412L433.222 116.812C433.932 117.458 434.287 118.218 434.287 119.092V179.056C434.287 180.006 433.732 180.481 432.624 180.481H408.478C407.369 180.481 406.815 180.006 406.815 179.056V127.015H401.028V179.056C401.028 180.006 400.474 180.481 399.365 180.481H375.219Z" fill="black"/>
<path d="M308.376 180.481C307.267 180.481 306.713 180.006 306.713 179.056V126.217C306.713 125.609 306.934 125.039 307.378 124.507L323.143 105.355C323.63 104.785 324.318 104.5 325.205 104.5H349.018C349.993 104.5 350.703 104.785 351.146 105.355L366.978 124.507C367.421 125.039 367.643 125.609 367.643 126.217V179.056C367.643 180.006 367.088 180.481 365.98 180.481H341.767C340.659 180.481 340.105 180.006 340.105 179.056V157.567H334.251V179.056C334.251 180.006 333.697 180.481 332.588 180.481H308.376ZM337.178 138.073C339.173 138.073 340.77 137.56 341.967 136.534C343.164 135.47 343.763 134.083 343.763 132.373C343.763 130.663 343.164 129.295 341.967 128.269C340.77 127.205 339.173 126.673 337.178 126.673C335.182 126.673 333.586 127.205 332.389 128.269C331.191 129.295 330.593 130.663 330.593 132.373C330.593 134.083 331.191 135.47 332.389 136.534C333.586 137.56 335.182 138.073 337.178 138.073Z" fill="black"/>
<path d="M263.568 190C262.459 190 261.905 189.525 261.905 188.575V173.983C261.905 173.261 262.126 172.691 262.57 172.273L272.414 163.837C272.947 163.419 273.213 162.811 273.213 162.013V105.925C273.213 104.975 273.767 104.5 274.876 104.5H299.088C300.197 104.5 300.751 104.975 300.751 105.925V175.522C300.751 175.864 300.707 176.187 300.618 176.491C300.529 176.757 300.307 177.042 299.953 177.346L286.184 189.145C285.518 189.715 284.853 190 284.188 190H263.568Z" fill="black"/>
<path d="M297.619 19V92.15H452.381V19H297.619ZM308.674 27.1278H441.327V84.0222H308.674V27.1278ZM319.728 35.2556V75.8944H336.31C345.452 75.8944 352.891 70.4244 352.891 63.7028V47.4472C352.891 40.7255 345.452 35.2556 336.31 35.2556H319.728ZM375 35.2556C368.904 35.2556 363.946 38.9009 363.946 43.3833V67.7667C363.946 72.2491 368.904 75.8944 375 75.8944H386.054V67.7667H375V59.6389H386.054V51.5111H375V43.3833H386.054V35.2556H375ZM395.403 35.2556L406.922 71.9337C407.651 74.2501 410.457 75.8944 413.691 75.8944C416.924 75.8944 419.73 74.2501 420.459 71.9337L431.978 35.2556H420.632L413.691 57.3609L406.749 35.2556H395.403ZM330.782 43.3833H336.31C339.361 43.3833 341.837 45.204 341.837 47.4472V63.7028C341.837 65.946 339.361 67.7667 336.31 67.7667H330.782V43.3833Z" fill="black"/>
</svg>
